<?xml version="1.0" encoding="utf-8"?>
<!-- Generator: Adobe Illustrator 25.0.0, SVG Export Plug-In . SVG Version: 6.00 Build 0)  -->
<svg version="1.1" id="Layer_1" xmlns="http://www.w3.org/2000/svg" xmlns:xlink="http://www.w3.org/1999/xlink" x="0px" y="0px"
	 viewBox="0 0 393.4 280.3" style="enable-background:new 0 0 393.4 280.3;" xml:space="preserve">
<style type="text/css">
	.st0{display:none;}
	.st1{fill:#FFFFFF;}
	.st2{fill:#0076BD;}
</style>
<g id="Layer_1_1_" class="st0">
</g>
<g id="Layer_2_1_">
	<g>
		<g>
			<path class="st1" d="M25.6,113.2c6,1.7,11.9-1.1,17.3-3.5c4.8-2.2,10.8-5.3,16-2.6c1.7,0.9,3.2-1.7,1.5-2.6
				c-5.6-3-11.6-0.8-16.9,1.6c-5.2,2.3-11.2,5.8-17.1,4.2C24.6,109.7,23.8,112.6,25.6,113.2L25.6,113.2z"/>
		</g>
	</g>
	<g>
		<g>
			<path class="st1" d="M29.4,110c11.3-5.7,23.7-9.1,36.3-10c1.9-0.1,1.9-3.1,0-3c-13.2,0.9-26,4.5-37.8,10.4
				C26.2,108.3,27.7,110.8,29.4,110L29.4,110z"/>
		</g>
	</g>
	<g>
		<g>
			<path d="M29.1,115.8c9.2-6.3,19.3-9.9,30-12.5c13.3-3.2,26.6-6,39.6-10.2c7.1-2.3,14.1-5.1,21.2-7.7c7.6-2.9,15.3-5.6,22.8-9
				c14.8-6.7,27.5-16.4,39.4-27.3c5.9-5.4,11.7-10.9,17.6-16.3c2.9-2.6,5.7-5.2,8.8-7.6c1.7-1.3,3.5-2.1,5.6-1.6
				c1.8,0.5,3.5,1.6,5.1,2.6c5.9,3.5,11.8,7.7,15.9,13.3c1.8,2.5,3.2,5.3,3.8,8.3c0.7,3.9-0.9,7.2-1.6,10.9
				c-1.2,6.4,3.4,11.1,8.8,13.5c6.9,3.1,15,4.1,22.4,4.9c8.9,1,17.8,1.2,26.7,0.5c6.2-0.5,12.6-0.8,17.4-5.2c4.2-3.9,5.3-9.6,7-14.8
				c0.8-2.5,1.9-5,4-6.7c2.6-2.1,6.1-2.6,9.3-2.3c4.4,0.4,9.5,2.4,11.4,6.6c1.6,3.6,1.7,8,2.2,11.8c1.1,9,3.1,17.7,4.8,26.5
				c1.2,6.2,2.2,12.3,2.9,18.5c0.4,3.3,0.7,6.6,0.9,9.9c0.2,3.1,0.5,6.4,0,9.5c-0.6,3.6-3.3,5.1-6.6,5.7c-4.2,0.8-8.5,1.5-12.8,2.2
				c-6.7,1.1-13.5,2.1-20.3,2.9c-7.1,0.8-14.3,1.6-21.5,1.8c-2.4,0.1-4.9,0-7.3,0c-9,0-18,0.2-27.1,0.5c-9.2,0.3-18.5,0.6-27.7,0.6
				s-18.4-0.1-27.7,0.4c-36.6,2.3-73.3,2.1-109.9,1.2c-16.1-0.4-32.3-1.4-48.4-1.2c-6,0.1-11.8-1.1-17-4.2
				c-3.9-2.4-8.3-5.8-9.7-10.5C17.4,124.1,24.3,119.1,29.1,115.8c1.6-1.1,0.1-3.7-1.5-2.6c-5.2,3.6-11.8,8.5-11.6,15.6
				c0.1,5.6,4.3,10,8.5,13.1c4.2,3.2,9.1,5.4,14.4,6.2c3.1,0.5,6.2,0.6,9.3,0.4c3.3-0.2,6.5,0,9.8,0.1c37.5,1.2,75.1,2.3,112.6,1.4
				c18.9-0.5,37.7-2,56.6-1.9s37.9-0.9,56.8-1c5.7,0,11.4,0,17.1-0.4c11.5-0.8,23-2.4,34.3-4.2c4.3-0.7,8.6-1.4,12.9-2.2
				c3-0.5,6-1.4,8-4c2.1-2.7,2-6.4,2-9.7c-0.1-3.3-0.3-6.6-0.6-9.8c-1.1-11.4-3.1-22.7-5.6-33.8c-0.9-4.3-1.7-8.7-2.3-13.1
				c-0.6-4.7-0.8-9.6-2.2-14.2c-3.2-10-18.4-13.5-26.2-6.9c-4.3,3.6-5,9.6-6.8,14.6c-1.9,5.5-5.8,9.4-11.6,10.5
				c-8.9,1.6-18.4,1.5-27.4,1c-4.6-0.3-9.3-0.8-13.8-1.6c-3.9-0.7-8-1.3-11.8-2.6c-2.9-1-6-2.4-8.1-4.8c-2.7-3-1.9-6.3-0.9-9.9
				c1.9-6.5,0.4-12.8-3.6-18.2c-4.2-5.6-9.9-9.9-15.7-13.5c-3-1.8-6.3-4.2-10-3.8c-3.7,0.4-6.7,3.6-9.3,6
				c-12.4,10.7-23.8,22.7-36.8,32.7c-6.7,5.1-13.8,9.6-21.3,13.2c-8,3.8-16.3,6.8-24.6,9.9c-7,2.6-14,5.4-21.1,7.7
				c-7.5,2.4-15,4.6-22.7,6.4c-11.2,2.7-22.8,4.6-33.5,8.9c-5.2,2.1-10.1,4.8-14.8,7.9C26,114.3,27.5,116.9,29.1,115.8z"/>
		</g>
	</g>
	<g>
		<g>
			<path d="M20.3,132.3c43.4,3.8,87,5.7,130.5,5.7c43.6,0,87.1-1.9,130.5-5.6c24.3-2.1,48.6-4.8,72.9-8.1c1.9-0.3,1.1-3.1-0.8-2.9
				c-43.3,5.9-86.8,9.8-130.4,11.9c-43.3,2.1-86.7,2.3-130,0.6c-24.3-0.9-48.5-2.5-72.8-4.6C18.4,129.2,18.4,132.2,20.3,132.3
				L20.3,132.3z"/>
		</g>
	</g>
	<g>
		<g>
			<path d="M270.4,77.5c-1,3.4-1.6,7.3-0.4,10.8c1.2,3.2,3.6,5.4,6.8,6.6c3.1,1.2,6.5,1.4,9.8,1.4c3.4,0,6.9-0.3,10.3-0.7
				c3.6-0.5,7.1-1.2,10.5-2.3c2.6-0.8,5.1-1.9,7.8-2.6c4.3-1.3,8.5-1.1,12.7,0c7.3,1.9,14.6,3.6,22,5.2c1.9,0.4,2.7-2.5,0.8-2.9
				c-6.8-1.5-13.6-3-20.4-4.7c-3.9-1-7.7-1.9-11.8-1.3c-5.3,0.7-10.3,3.2-15.5,4.5c-3.6,0.9-7.2,1.4-10.9,1.6
				c-3.1,0.2-6.3,0.4-9.5,0.1c-3.1-0.3-6.7-1.1-8.7-3.7c-2.5-3.1-1.8-7.6-0.7-11.1C273.8,76.5,270.9,75.7,270.4,77.5L270.4,77.5z"/>
		</g>
	</g>
	<g>
		<path class="st2" d="M30.8,261.5v-95.6h17.5v86h32v9.6H30.8z"/>
		<path class="st2" d="M92.1,261.5v-95.6h48.5v9.9h-31v31.6h25.2v9.4h-25.2V252H141v9.6H92.1V261.5z"/>
		<path class="st2" d="M168.7,261.5v-85.7h-21.2v-9.9h59.2v9.9h-20.5v85.7H168.7z"/>
		<path class="st2" d="M218.7,261.5v-95.6h17.5v41.3h32.1v-41.3h17.5v95.6h-17.5v-44.7h-32.1v44.7H218.7z"/>
		<path class="st2" d="M298.6,261.5l26.6-95.6H342l26.7,95.6h-16.5l-5.7-24.1H321l-6,24.1H298.6z M323.3,227.9h20.9l-10.5-43.1
			L323.3,227.9z"/>
	</g>
</g>
</svg>
